P2
8 9
255
192 192 192 192 192 197 197 192
197 255 255 255 255 197 255 192
255 255 255 255 247 255 255 192
255 255 255 255 197 255 255 192
255 255 255 255 255 255 255 192
255 255 255 255 255 255 255 192
255 255 255 255 255 255 255 192
255 255 255 255 255 255 255 192
192 192 192 192 192 192 192 192
