P2
21 20
255
192 192 192 192 192 192 192 192 192 192 192 197 192 197 197 192 192 192 192 192 192
192 192 192 192 192 192 192 192 192 197 192 197 197 191 197 192 192 192 192 172 140
255 247  81 214 255 255 255 197 191 197 197 191 134 192 192 192 197 197 197 255 255
255 255 205 255 255 255 197 197 255 255 255 255 192 192 197 197 191 197 255 255 255
255 255 255 221 197 197 255 255 255 255 192 192 197 197 197 197 197 255 255 255 255
221 197 197 255 255 255 255 255 192 192 255 214 197 197 197 197 255 255 255 255 197
205 255 255 255 255 255 192 192 255 255 255 197 197 197 230 255 255 255 221 197 191
255 255 255 255 192 192 255 255 255 255 197 197 197 197 247 175 158 247 237 141 255
255 255 192 192 255 255 255 255 255 177 111 134 175 255 191   6  23 191 255 255 255
192 192 255 255 255 255 255 255 127 158   6   6   6   6   6   6 175 255 255 255 192
255 255 255 255 255 255 255  85 255 163  85 134 230 255 247 255 255 255 192 192 255
255 255 255 255 255 255 118 255 255 255 255 255 255 255 255 255 192 192 255 255 255
255 255 255 255 255 102  46 151 191  23 255 255 255 255 192 192 255 255 255 255 255
255 255 255 255 255 255 255 255 255 255 255 255 192 192 255 255 255 255 255 255 255
255 255 255 255 255 255 255 255 255 255 192 192 255 255 255 255 255 255 255 255 255
255 255 255 255 255 255 255 255 192 192 255 255 255 255 255 255 255 255 255 255 255
255 255 255 255 255 255 192 192 255 255 255 255 255 255 255 255 255 255 255 255 255
255 255 255 255 192 192 192 255 221 230 255 255 255 255 255 165 255 255 255 255 255
164 192 192 192 192 192 192 192 163 255 205 192 192 158 192 192 192 192 192 192 192
192 192 192 192 192 192 192 192 192 192 192 192 192 192 192 192 192 192 192 192 192
